<svg width="24" height="24" viewBox="0 0 24 24" fill="none" xmlns="http://www.w3.org/2000/svg">
<path fill-rule="evenodd" clip-rule="evenodd" d="M4.22208 4.22079C3.83156 4.61131 3.83156 5.24448 4.22208 5.635L10.586 11.999L4.22105 18.364C3.83052 18.7545 3.83052 19.3877 4.22105 19.7782C4.61157 20.1687 5.24474 20.1687 5.63526 19.7782L12.0003 13.4132L18.3642 19.7771C18.7547 20.1677 19.3879 20.1677 19.7784 19.7771C20.169 19.3866 20.169 18.7534 19.7784 18.3629L13.4145 11.999L19.7774 5.63604C20.1679 5.24551 20.1679 4.61235 19.7774 4.22183C19.3869 3.8313 18.7537 3.8313 18.3632 4.22183L12.0003 10.5848L5.63629 4.22079C5.24577 3.83027 4.61261 3.83027 4.22208 4.22079Z" fill="white"/>
</svg>
